<?xml version="1.0" encoding="UTF-8"?>
<svg width="540" height="540" version="1.1" viewBox="0 0 142.88 142.88" xml:space="preserve"
  xmlns="http://www.w3.org/2000/svg">
  <style>
    .choice {
      cursor: pointer;
    }
    .choosing .choice {
      cursor: wait;
    }

    .player {
      fill: #008000;
    }
    .cpu {
      fill: #df0f00;
    }
    .cpu::after {
      content: "CPU"
    }
    .player.cpu {
      fill: url(#both)
    }
    
    .winner {
      -webkit-animation: 2s blink ease-in-out infinite;
      animation: 2s blink ease-in-out infinite;
    }
    @keyframes "blink" {
      from,
      to {
        opacity: 0.1;
      }
      50% {
        opacity: 1;
      }
    }
    @-webkit-keyframes "blink" {
      from,
      to {
        opacity: 0.1;
      }
      50% {
        opacity: 1;
      }
    }
  </style>
  <defs>
    <marker id="m-🖖-✂" overflow="visible" markerHeight="6" markerWidth="5" orient="auto-start-reverse" preserveAspectRatio="xMidYMid" viewBox="0 0 5 6">
      <path d="m1 0-3 3h-2l3-3-3-3h2z" fill="#eeeeee" fill-rule="evenodd"/>
    </marker>
    <marker id="m-🦎-🖖" overflow="visible" markerHeight="6" markerWidth="5" orient="auto-start-reverse" preserveAspectRatio="xMidYMid" viewBox="0 0 5 6">
      <path d="m1 0-3 3h-2l3-3-3-3h2z" fill="#eeeeee" fill-rule="evenodd"/>
    </marker>
    <marker id="m-✂-📄" overflow="visible" markerHeight="6" markerWidth="5" orient="auto-start-reverse" preserveAspectRatio="xMidYMid" viewBox="0 0 5 6">
      <path d="m1 0-3 3h-2l3-3-3-3h2z" fill="#eeeeee" fill-rule="evenodd"/>
    </marker>
    <marker id="m-🦎-📄" overflow="visible" markerHeight="6" markerWidth="5" orient="auto-start-reverse" preserveAspectRatio="xMidYMid" viewBox="0 0 5 6">
      <path d="m1 0-3 3h-2l3-3-3-3h2z" fill="#eeeeee" fill-rule="evenodd"/>
    </marker>
    <marker id="m-🗿-🦎" overflow="visible" markerHeight="6" markerWidth="5" orient="auto-start-reverse" preserveAspectRatio="xMidYMid" viewBox="0 0 5 6">
      <path d="m1 0-3 3h-2l3-3-3-3h2z" fill="#eeeeee" fill-rule="evenodd"/>
    </marker>
    <marker id="m-✂-🦎" overflow="visible" markerHeight="6" markerWidth="5" orient="auto-start-reverse" preserveAspectRatio="xMidYMid" viewBox="0 0 5 6">
      <path d="m1 0-3 3h-2l3-3-3-3h2z" fill="#eeeeee" fill-rule="evenodd"/>
    </marker>
    <marker id="m-🗿-✂" overflow="visible" markerHeight="6" markerWidth="5" orient="auto-start-reverse" preserveAspectRatio="xMidYMid" viewBox="0 0 5 6">
      <path d="m1 0-3 3h-2l3-3-3-3h2z" fill="#eeeeee" fill-rule="evenodd"/>
    </marker>
    <marker id="m-📄-🗿" overflow="visible" markerHeight="6" markerWidth="5" orient="auto-start-reverse" preserveAspectRatio="xMidYMid" viewBox="0 0 5 6">
      <path d="m1 0-3 3h-2l3-3-3-3h2z" fill="#eeeeee" fill-rule="evenodd"/>
    </marker>
    <marker id="m-📄-🖖" overflow="visible" markerHeight="6" markerWidth="5" orient="auto-start-reverse" preserveAspectRatio="xMidYMid" viewBox="0 0 5 6">
      <path d="m1 0-3 3h-2l3-3-3-3h2z" fill="#eeeeee" fill-rule="evenodd"/>
    </marker>
    <marker id="m-🖖-🗿" overflow="visible" markerHeight="6" markerWidth="5" orient="auto-start-reverse" preserveAspectRatio="xMidYMid" viewBox="0 0 5 6">
      <path d="m1 0-3 3h-2l3-3-3-3h2z" fill="#eeeeee" fill-rule="evenodd"/>
    </marker>
    <defs>
      <linearGradient id="both" x1="0%" y1="0%" x2="100%" y2="0%">
        <stop offset="0%" style="stop-color:#008000;stop-opacity:1" />
        <stop offset="100%" style="stop-color:#ff0000;stop-opacity:1" />
      </linearGradient>
    </defs>
  </defs>
  <g transform="translate(-10.91 -4.2151)">
    <g id="🗿" class="choice" transform="matrix(.088271 0 0 .088271 91.666 131.98)">
      <path class="border" d="m63.5 53.875c-3.1667 0-6.1042-0.5833-8.8125-1.75s-5.0833-2.7708-7.125-4.8125-3.6458-4.4167-4.8125-7.125-1.75-5.6458-1.75-8.8125v-13.125c0-4.25 0.6667-8.4167 2-12.5s3.25-7.875 5.75-11.375c-0.4167-0.08333-0.7083-0.25-0.875-0.5-2.9167-2.1667-5.3958-4.3958-7.4375-6.6875s-3.6875-4.75-4.9375-7.375-2.1458-5.4375-2.6875-8.4375-0.8125-6.3333-0.8125-10c0-4.25 0.7708-8.3333 2.3125-12.25s3.7708-7.4167 6.6875-10.5v-21c-2.25-2.0833-3.9792-4.125-5.1875-6.125s-2.0833-4.0625-2.625-6.1875-0.875-4.375-1-6.7505c-0.125-2.374-0.1875-5.02-0.1875-7.937 0-9.917 3.5-18.375 10.5-25.375l25.375-25.5v-26.875l36-36c2.333-2.333 4.729-4.208 7.188-5.625 2.458-1.417 4.979-2.5 7.562-3.25s5.229-1.25 7.938-1.5c2.708-0.25 5.52-0.375 8.437-0.375 2.167 0 4.396 0.042 6.688 0.125 2.291 0.083 4.645 0.125 7.062 0.125 5 0 9.833 0.479 14.5 1.437 4.667 0.959 9.417 1.938 14.25 2.938 1.667 0.333 3.333 0.542 5 0.625s3.333 0.125 5 0.125h6c2.667 1.75 5.125 3.604 7.375 5.562 2.25 1.959 4.188 4.105 5.813 6.438s2.875 4.875 3.75 7.625 1.312 5.833 1.312 9.25c0 1.5-0.125 3-0.375 4.5l-16.75 113.62c-0.583 3.75-1.708 7.0833-3.375 10s-4.042 5.4583-7.125 7.625c-0.917 5.1667-2.875 9.8333-5.875 14l19 19c2.917 2.9167 5.313 5.8542 7.188 8.8125s3.333 6.0417 4.375 9.25c1.041 3.2083 1.77 6.5833 2.187 10.125 0.417 3.5417 0.625 7.3125 0.625 11.312 0 4.25-0.521 8.0625-1.562 11.438-1.042 3.375-2.48 6.5417-4.313 9.5s-4 5.75-6.5 8.375-5.208 5.3125-8.125 8.0625c-2.667 2.5833-5.583 4.5417-8.75 5.875s-6.625 2-10.375 2z"/>
      <path d="m144-49c0.5 1.3333 1.333 3.4792 2.5 6.4375s2.521 6.4375 4.063 10.438c1.541 4 3.229 8.375 5.062 13.125s3.667 9.5208 5.5 14.312c1.833 4.7917 3.583 9.4583 5.25 14 1.667 4.5417 3.146 8.625 4.438 12.25 1.291 3.625 2.333 6.6458 3.125 9.0625 0.791 2.4167 1.187 3.9167 1.187 4.5 0 0.4167-0.271 0.6458-0.812 0.6875-0.542 0.0417-0.938 0.0625-1.188 0.0625h-109.62c-1.25 0-2.3125-0.4375-3.1875-1.3125s-1.3125-1.9375-1.3125-3.1875v-13.125c0-3.6667 0.5833-6.6875 1.75-9.0625s2.6458-4.4792 4.4375-6.3125 3.7292-3.6458 5.8125-5.4375c2.0833-1.7917 4.0417-3.9375 5.875-6.4375 1.9167-2.5833 3.5-5.3333 4.75-8.25s2.6667-5.75 4.25-8.5c-2 0-4.7292-0.2708-8.1875-0.8125s-7-1.2917-10.625-2.25-7.0208-2.0417-10.188-3.25-5.4583-2.5208-6.875-3.9375c0-3.5 0.4583-6.25 1.375-8.25s1.9375-3.75 3.0625-5.25 2.1667-3.0208 3.125-4.5625 1.4375-3.6042 1.4375-6.1875v-29.625c0-0.5833-0.1458-1.5417-0.4375-2.875s-0.6667-2.875-1.125-4.625-0.9792-3.625-1.5625-5.625-1.1458-3.896-1.6875-5.688c-0.5417-1.791-1.0417-3.416-1.5-4.875-0.4583-1.458-0.8125-2.562-1.0625-3.312 0.8333-1.917 2.0417-3.667 3.625-5.25l30.625-30.625 9-36 21.75-21.625c3.5-3.5 7.708-5.25 12.625-5.25h27.625c0.583 0 0.875 0.208 0.875 0.625 0 3.583-0.167 7.104-0.5 10.562-0.333 3.459-0.667 6.98-1 10.563-0.5 5.75-0.979 11.417-1.437 17-0.459 5.583-0.896 11.25-1.313 17-1.5 18.583-3.042 37.063-4.625 55.437-1.583 18.376-3.208 36.855-4.875 55.438z" fill="#ccc"/>
      <path d="m187.75-210.75c1.917 1.25 3.396 2.896 4.438 4.937 1.041 2.042 1.562 4.188 1.562 6.438 0 0.75-0.042 1.333-0.125 1.75l-16.75 113.5c-0.417 2.6667-1.583 4.625-3.5 5.875s-4.125 1.875-6.625 1.875v1.25c0 1.6667-0.021 3.2917-0.062 4.875-0.042 1.5833-0.23 3.1042-0.563 4.5625s-0.854 2.8542-1.562 4.1875c-0.709 1.3333-1.73 2.625-3.063 3.875-0.667 0.6667-1.333 1.25-2 1.75s-1.25 1.125-1.75 1.875l-19 27.125c-0.75 1.0833-1.958 2.1458-3.625 3.1875s-3.562 2.0208-5.687 2.9375-4.417 1.7917-6.875 2.625c-2.459 0.8333-4.855 1.5417-7.188 2.125s-4.5 1.0417-6.5 1.375-3.667 0.5-5 0.5c-4.5833 0-9.1042-0.5208-13.562-1.5625s-8.9375-1.8125-13.438-2.3125c-0.5-0.0833-1-0.125-1.5-0.125h-1.5c-1 0-2 0.0208-3 0.0625s-2 0.0625-3 0.0625c-2.5 0-4.8333-0.4792-7-1.4375s-4.0625-2.25-5.6875-3.875-2.8958-3.5208-3.8125-5.6875-1.375-4.5-1.375-7h35.875l53.875-53.875v-98.875l18-26.75c1.333 0.167 3.042 0.458 5.125 0.875s4.188 0.875 6.313 1.375 4.166 1.042 6.125 1.625c1.958 0.583 3.562 1.167 4.812 1.75l0.125-1.25zm6 214.75c0 3.75-0.292 6.9375-0.875 9.5625s-1.5 5-2.75 7.125-2.854 4.1458-4.812 6.0625c-1.959 1.9167-4.271 4.0833-6.938 6.5-0.5 0.4167-1 0.8125-1.5 1.1875s-1.083 0.6458-1.75 0.8125l-44.25-44.25 17.875-29.875 18 2.875 17.75 17.75c2.917 2.9167 5.188 6.3125 6.813 10.188s2.437 7.8958 2.437 12.062zm-89.875-111.88-29.625 7.75-24.25-7.75c0-1.583 0.1042-3.125 0.3125-4.625s0.6458-2.958 1.3125-4.375h18.125c4.75 0 8.4583-2 11.125-6l32-47.875 6.375 3.25 2.625 5.75z" fill="#a6a6a6"/>
      <path d="m148.75-165.5c0 1.417-0.396 2.875-1.187 4.375-0.792 1.5-1.813 2.875-3.063 4.125s-2.625 2.271-4.125 3.062c-1.5 0.792-2.917 1.188-4.25 1.188-1.667 0-3.104-0.146-4.312-0.438-1.209-0.291-2.396-1.02-3.563-2.187l-12.75-12.75c-1.75-1.75-3.875-2.625-6.375-2.625-1.583 0-3 0.146-4.25 0.437-1.25 0.292-2.458 1.021-3.625 2.188l-15.375 15.375v-27l9-9h43.125c0.75 0 1.729 0.417 2.938 1.25 1.208 0.833 2.395 1.854 3.562 3.062 1.167 1.209 2.167 2.417 3 3.625 0.833 1.209 1.25 2.188 1.25 2.938zm9 111.62c0.083 3.9167 0.938 7.2083 2.563 9.875s3.77 5.3333 6.437 8h-9l-26.875 27h-54v-9h30.125c4.75 0 9.333-0.9167 13.75-2.75s8.292-4.4167 11.625-7.75zm-85.375-27c-1.5 0-2.875-0.2917-4.125-0.875s-2.3958-1.3125-3.4375-2.1875-2.0208-1.8333-2.9375-2.875-1.875-2.0625-2.875-3.0625c-0.9167-0.9167-1.8958-1.8333-2.9375-2.75s-2.0208-1.875-2.9375-2.875-1.6667-2.0833-2.25-3.25-0.875-2.458-0.875-3.875v-5.25h53.875l-23.75 23.875c-2.0833 2.0833-4.6667 3.125-7.75 3.125z" fill="#757575"/>
      <path d="m148.75-85.375 9-9 17.375-113c0.417-2.5 1.917-3.75 4.5-3.75 1.167 0 2.188 0.438 3.063 1.312 0.875 0.876 1.312 1.896 1.312 3.063v0.625l-17.25 120.75z" fill="#ccc"/>
    </g>
    <g id="📄" class="choice" transform="matrix(.088348 0 0 .088348 46.353 131.98)">
      <path class="border" d="m219.12-233.62 46.5 46.5v241h-233.62v-287.5z"/>
      <path d="m201.25-168.62v-34.875l10.375-12.125 36 35.875-11.875 10.75z" fill="#e5e5e5"/>
      <path d="m211.62-179.75h36v215.62h-197.62v-251.5h161.62z" fill="#fff"/>
      <path d="m67.875-161.75h161.75v9h-161.75zm0 89.875v-9h161.75v9zm0 53.875v-9h152.75v9zm152.75-89.875v9h-152.75v-9zm-9-26.875v9h-143.75v-9zm0 80.875v8.875h-143.75v-8.875zm-62.875-134.88v9h-80.875v-9zm-80.875 197.75v-9h36v9z" fill="#a6a6a6"/>
    </g>
    <g id="✂" class="choice" transform="matrix(.088348 0 0 .088348 9.3739 81.18)">
      <path class="border" d="m292.5 2.125v40.25c0 1.5833-0.292 3.0833-0.875 4.5s-1.396 2.6458-2.437 3.6875c-1.042 1.0417-2.271 1.8542-3.688 2.4375s-2.917 0.875-4.5 0.875c-1.5 0-2.979-0.2917-4.437-0.875-1.459-0.5833-2.73-1.4167-3.813-2.5l-106-106-106 106c-1.0833 1.0833-2.3542 1.9167-3.8125 2.5s-2.9375 0.875-4.4375 0.875c-1.5833 0-3.0833-0.2917-4.5-0.875s-2.6458-1.3958-3.6875-2.4375-1.8542-2.2708-2.4375-3.6875-0.875-2.9167-0.875-4.5v-40.25c0-6 1.125-11.729 3.375-17.188 2.25-5.4583 5.5-10.312 9.75-14.562l69.25-69.25-11.375-11.375c-5.5 1.583-11.292 2.375-17.375 2.375-6.75 0-13.479-1.333-20.188-4s-12.854-6.25-18.438-10.75-10.396-9.729-14.438-15.688c-4.0417-5.958-6.7708-12.27-8.1875-18.937-0.5-2.167-0.8542-4.396-1.0625-6.688-0.2083-2.291-0.3125-4.562-0.3125-6.812 0-8.667 1.6458-16.813 4.9375-24.438 3.2917-7.624 7.7917-14.291 13.5-20 5.7083-5.708 12.375-10.208 20-13.5 7.625-3.291 15.771-4.937 24.438-4.937 8.667 0 16.813 1.646 24.438 4.937 7.625 3.292 14.291 7.792 20 13.5 5.708 5.709 10.208 12.396 13.5 20.063 3.291 7.667 4.937 15.833 4.937 24.5 0 5.833-0.75 11.5-2.25 17l11.25 11.375 11.375-11.375c-1.583-5.5-2.375-11.25-2.375-17.25 0-8.667 1.646-16.813 4.938-24.438 3.291-7.625 7.791-14.27 13.5-19.937 5.708-5.667 12.375-10.146 20-13.438 7.625-3.291 15.77-4.937 24.437-4.937s16.812 1.646 24.438 4.937c7.625 3.292 14.291 7.792 20 13.5 5.708 5.709 10.208 12.376 13.5 20 3.291 7.625 4.937 15.771 4.937 24.438 0 2.25-0.104 4.521-0.312 6.812-0.209 2.292-0.563 4.521-1.063 6.688-1.417 6.667-4.146 13-8.187 19-4.042 6-8.855 11.25-14.438 15.75s-11.729 8.062-18.437 10.687c-6.709 2.625-13.438 3.938-20.188 3.938-6.083 0-11.875-0.792-17.375-2.375l-11.375 11.375 69.25 69.25c4.25 4.25 7.5 9.1042 9.75 14.562 2.25 5.4583 3.375 11.188 3.375 17.188z"/>
      <path d="m199.38-132.62 3.375 15.75-36 36-7.625 1.5-1.375 7.5-98.75 98.75v-24.75c0-7.4167 2.625-13.75 7.875-19l72.875-73h9v-9l36-35.875z" fill="#ccc"/>
      <path d="m172.62-86.75-14.875 14.875-18-18 14.875-14.75z" fill="#757575"/>
      <path d="m148.75-134.75 117.88 117.88c2.583 2.5833 4.563 5.4792 5.938 8.6875 1.375 3.2083 2.062 6.6458 2.062 10.312v24.75l-143.75-143.75 2.5-16.875z" fill="#e5e5e5"/>
      <path d="m166.75-89.875c-2.5 0-4.625-0.875-6.375-2.625s-2.625-3.875-2.625-6.375 0.875-4.625 2.625-6.375 3.875-2.625 6.375-2.625 4.625 0.875 6.375 2.625 2.625 3.875 2.625 6.375-0.875 4.625-2.625 6.375-3.875 2.625-6.375 2.625z" fill="#a6a6a6"/>
      <path d="m238.62-215.62c6.167 0 11.979 1.188 17.438 3.562 5.458 2.376 10.208 5.584 14.25 9.625 4.041 4.042 7.25 8.792 9.625 14.25 2.375 5.459 3.562 11.271 3.562 17.438 0 6.25-1.167 12.083-3.5 17.5s-5.542 10.167-9.625 14.25-8.833 7.292-14.25 9.625-11.25 3.5-17.5 3.5c-3.75 0-7.458-0.438-11.125-1.313s-7.125-2.229-10.375-4.062l-14.375 14.375-18-17.875 14.375-14.5c-3.583-6.75-5.375-13.917-5.375-21.5 0-6.167 1.167-11.979 3.5-17.438 2.333-5.458 5.542-10.208 9.625-14.25 4.083-4.041 8.854-7.249 14.313-9.625 5.458-2.374 11.27-3.562 17.437-3.562zm-89.875 80.875-17.875 17.875-14.5-14.375c-3.25 1.833-6.708 3.187-10.375 4.062s-7.375 1.313-11.125 1.313c-6.1667 0-11.979-1.167-17.438-3.5s-10.229-5.542-14.312-9.625-7.2917-8.854-9.625-14.313c-2.3333-5.458-3.5-11.27-3.5-17.437s1.1667-11.979 3.5-17.438c2.3333-5.458 5.5417-10.208 9.625-14.25 4.0833-4.041 8.8542-7.249 14.312-9.625 5.4583-2.374 11.271-3.562 17.438-3.562 6.167 0 11.979 1.188 17.438 3.562 5.458 2.376 10.208 5.584 14.25 9.625 4.041 4.042 7.25 8.792 9.625 14.25 2.375 5.459 3.562 11.271 3.562 17.438 0 3.75-0.437 7.458-1.312 11.125s-2.23 7.125-4.063 10.375zm-80.875-36c0 3.75 0.7083 7.25 2.125 10.5s3.3542 6.104 5.8125 8.562c2.4583 2.459 5.3125 4.396 8.5625 5.813s6.75 2.125 10.5 2.125 7.25-0.708 10.5-2.125 6.104-3.354 8.563-5.813c2.458-2.458 4.395-5.312 5.812-8.562s2.125-6.75 2.125-10.5-0.708-7.25-2.125-10.5-3.354-6.083-5.812-8.5c-2.459-2.417-5.313-4.333-8.563-5.75s-6.75-2.125-10.5-2.125-7.25 0.708-10.5 2.125-6.1042 3.333-8.5625 5.75-4.3958 5.25-5.8125 8.5-2.125 6.75-2.125 10.5zm170.75 27c3.75 0 7.25-0.708 10.5-2.125s6.104-3.354 8.563-5.813c2.458-2.458 4.395-5.312 5.812-8.562s2.125-6.75 2.125-10.5-0.708-7.25-2.125-10.5-3.354-6.083-5.812-8.5c-2.459-2.417-5.313-4.333-8.563-5.75s-6.75-2.125-10.5-2.125-7.25 0.708-10.5 2.125-6.104 3.333-8.562 5.75c-2.459 2.417-4.396 5.25-5.813 8.5s-2.125 6.75-2.125 10.5 0.708 7.25 2.125 10.5 3.354 6.104 5.813 8.562c2.458 2.459 5.312 4.396 8.562 5.813s6.75 2.125 10.5 2.125z" fill="#f03a17"/>
    </g>
    <g id="🖖" class="choice" transform="matrix(.091203 0 0 .091203 70 35.216)">
      <path class="border" d="M135.375,53.875C127.542,53.875 119.979,52.8542 112.688,50.8125C105.396,48.7708 98.5833,45.8958 92.25,42.1875C85.9167,38.4792 80.1667,34.0417 75,28.875C69.8333,23.7083 65.3958,17.9583 61.6875,11.625C57.9792,5.29167 55.1042,-1.52083 53.0625,-8.8125C51.0208,-16.1042 50,-23.6667 50,-31.5L50,-80.875L34.5,-118C33.6667,-119.917 33.0208,-121.875 32.5625,-123.875C32.1042,-125.875 31.875,-127.917 31.875,-130C31.875,-135.333 33.125,-140.354 35.625,-145.063C38.125,-149.771 41.625,-153.583 46.125,-156.5C44.875,-159.583 43.6875,-162.583 42.5625,-165.5C41.4375,-168.417 40.875,-171.583 40.875,-175C40.875,-179.417 41.6875,-183.542 43.3125,-187.375C44.9375,-191.208 47.1875,-194.562 50.0625,-197.438C52.9375,-200.312 56.2917,-202.562 60.125,-204.188C63.9583,-205.812 68.0833,-206.625 72.5,-206.625C78.5833,-206.625 83.5833,-205.458 87.5,-203.125C91.4167,-200.792 94.7083,-197.75 97.375,-194C100.042,-190.25 102.292,-186.063 104.125,-181.438C105.958,-176.813 107.833,-172.208 109.75,-167.625L126.375,-128.5L151.375,-187.625C152.625,-190.458 154.229,-193.063 156.188,-195.438C158.146,-197.813 160.396,-199.813 162.938,-201.438C165.479,-203.063 168.208,-204.333 171.125,-205.25C174.042,-206.167 177.083,-206.625 180.25,-206.625C184.667,-206.625 188.792,-205.812 192.625,-204.188C196.458,-202.562 199.792,-200.312 202.625,-197.438C205.458,-194.562 207.688,-191.208 209.313,-187.375C210.938,-183.542 211.75,-179.417 211.75,-175C211.75,-171.583 211.229,-168.396 210.188,-165.438C209.146,-162.479 207.917,-159.5 206.5,-156.5C211,-153.75 214.5,-150.021 217,-145.313C219.5,-140.604 220.75,-135.625 220.75,-130.375C220.75,-128.208 220.5,-126.042 220,-123.875C219.5,-121.708 218.833,-119.625 218,-117.625L202.75,-80.875L202.75,-79.5C205.583,-81.9167 208.292,-84.2917 210.875,-86.625C213.458,-88.9583 216.125,-91.0208 218.875,-92.8125C221.625,-94.6042 224.604,-96.0625 227.813,-97.1875C231.021,-98.3125 234.625,-98.875 238.625,-98.875C243.625,-98.875 248.313,-97.9375 252.688,-96.0625C257.063,-94.1875 260.875,-91.625 264.125,-88.375C267.375,-85.125 269.938,-81.3125 271.813,-76.9375C273.688,-72.5625 274.625,-67.875 274.625,-62.875C274.625,-58.0417 273.75,-53.4583 272,-49.125C270.25,-44.7917 267.625,-40.9167 264.125,-37.5L195.375,29.125C187.042,37.2083 177.875,43.3542 167.875,47.5625C157.875,51.7708 147.042,53.875 135.375,53.875Z" fill="#000000" fill-opacity="1" />
      <path d="M256.625,-62.875C256.625,-60.5417 256.167,-58.2708 255.25,-56.0625C254.333,-53.8542 253.042,-51.9167 251.375,-50.25L182.875,16.25C176.375,22.5 169.104,27.3333 161.063,30.75C153.021,34.1667 144.458,35.875 135.375,35.875C126.042,35.875 117.292,34.1042 109.125,30.5625C100.958,27.0208 93.8333,22.2083 87.75,16.125C81.6667,10.0417 76.8542,2.91667 73.3125,-5.25C69.7708,-13.4167 68,-22.1667 68,-31.5L68,-84.5L51.125,-124.875C50.375,-126.625 50,-128.417 50,-130.25C50,-133.75 51.1458,-136.771 53.4375,-139.313C55.7292,-141.854 58.625,-143.292 62.125,-143.625C68.9583,-131.792 74.7083,-119.333 79.375,-106.25L85,-110.25L60.125,-169.875C59.375,-171.625 59,-173.375 59,-175.125C59,-176.958 59.3542,-178.688 60.0625,-180.313C60.7708,-181.938 61.7292,-183.375 62.9375,-184.625C64.1458,-185.875 65.5625,-186.854 67.1875,-187.563C68.8125,-188.271 70.5417,-188.625 72.375,-188.625C75.0417,-188.625 77.5,-187.896 79.75,-186.438C82,-184.979 83.6667,-183.042 84.75,-180.625L111.5,-117.5C112.25,-115.75 112.979,-113.792 113.688,-111.625C114.396,-109.458 115.292,-107.437 116.375,-105.563C117.458,-103.687 118.792,-102.104 120.375,-100.813C121.958,-99.5208 123.958,-98.875 126.375,-98.875C128.708,-98.875 130.604,-99.4167 132.063,-100.5C133.521,-101.583 134.792,-103.083 135.875,-105C136.958,-107 137.875,-109.062 138.625,-111.188C139.375,-113.312 140.208,-115.417 141.125,-117.5L167.875,-180.625C168.958,-183.042 170.646,-184.979 172.938,-186.438C175.229,-187.896 177.708,-188.625 180.375,-188.625C182.208,-188.625 183.938,-188.271 185.563,-187.563C187.188,-186.854 188.604,-185.896 189.813,-184.688C191.021,-183.479 191.979,-182.063 192.688,-180.438C193.396,-178.813 193.75,-177.083 193.75,-175.25C193.75,-173.417 193.375,-171.625 192.625,-169.875L166.75,-107.875L166.75,-98.875L169.125,-100.625C172.292,-108.042 175.667,-115.312 179.25,-122.438C182.833,-129.563 186.625,-136.625 190.625,-143.625C194.125,-143.292 197.021,-141.854 199.313,-139.313C201.604,-136.771 202.75,-133.75 202.75,-130.25C202.75,-128.417 202.375,-126.625 201.625,-124.875L184.75,-84.5L184.75,-64.125C184.75,-60.9583 185.375,-58.4583 186.625,-56.625C187.875,-54.7917 190.25,-53.875 193.75,-53.875C195.167,-53.875 196.75,-53.9792 198.5,-54.1875C200.25,-54.3958 201.708,-55 202.875,-56L226,-75.625C228,-77.2917 229.938,-78.5833 231.813,-79.5C233.688,-80.4167 235.958,-80.875 238.625,-80.875C241.125,-80.875 243.458,-80.3958 245.625,-79.4375C247.792,-78.4792 249.688,-77.1875 251.313,-75.5625C252.938,-73.9375 254.229,-72.0417 255.188,-69.875C256.146,-67.7083 256.625,-65.375 256.625,-62.875Z" fill="#FFC83D" fill-opacity="1" />
      <path d="M184.875,-62.875C185.042,-60.7083 185.75,-58.7083 187,-56.875C188.25,-55.0417 190.083,-54.0417 192.5,-53.875L180.25,-53.875C173.417,-53.875 167,-52.5833 161,-50C155,-47.4167 149.771,-43.8958 145.313,-39.4375C140.854,-34.9792 137.333,-29.75 134.75,-23.75C132.167,-17.75 130.875,-11.3333 130.875,-4.5C130.875,-3.25 130.438,-2.1875 129.563,-1.3125C128.688,-0.4375 127.625,0 126.375,0C125.125,0 124.062,-0.4375 123.188,-1.3125C122.312,-2.1875 121.875,-3.25 121.875,-4.5C121.875,-12.5 123.417,-20.0417 126.5,-27.125C129.583,-34.2083 133.771,-40.3958 139.063,-45.6875C144.354,-50.9792 150.542,-55.1667 157.625,-58.25C164.708,-61.3333 172.25,-62.875 180.25,-62.875ZM99.25,-80.25C99.1667,-79.0833 98.7083,-78.1458 97.875,-77.4375C97.0417,-76.7292 96.0417,-76.375 94.875,-76.375C94.0417,-76.375 93.2292,-76.625 92.4375,-77.125C91.6458,-77.625 91.0833,-78.25 90.75,-79L62.125,-143.625C62.375,-143.625 62.625,-143.646 62.875,-143.688C63.125,-143.729 63.375,-143.75 63.625,-143.75C65.4583,-143.75 67.4792,-143.25 69.6875,-142.25C71.8958,-141.25 73.4583,-139.917 74.375,-138.25C76.0417,-135.333 77.4583,-132.271 78.625,-129.063C79.7917,-125.854 81.0833,-122.708 82.5,-119.625C85.4167,-113.042 88.2708,-106.5 91.0625,-100C93.8542,-93.5 96.5833,-86.9167 99.25,-80.25ZM153.375,-80.25L170.125,-119.625C171.458,-122.792 172.771,-125.938 174.063,-129.063C175.354,-132.188 176.792,-135.25 178.375,-138.25C179.292,-139.917 180.854,-141.25 183.063,-142.25C185.271,-143.25 187.292,-143.75 189.125,-143.75C189.375,-143.75 189.625,-143.729 189.875,-143.688C190.125,-143.646 190.375,-143.625 190.625,-143.625L161.875,-79C161.042,-77.25 159.667,-76.375 157.75,-76.375C156.583,-76.375 155.625,-76.75 154.875,-77.5C154.125,-78.25 153.625,-79.1667 153.375,-80.25Z" fill="#D48C00" fill-opacity="1" />
    </g>
    <g id="🦎" class="choice" transform="matrix(.088348 0 0 .088348 125 81.18)">
      <path class="border" d="m157.75 44.875c-9.417 0-18.354-1.75-26.812-5.25-8.459-3.5-15.917-8.2917-22.375-14.375-6.459-6.0833-11.688-13.229-15.688-21.438-4-8.2083-6.2917-17.021-6.875-26.438-1.9167 1.5833-4.0625 2.75-6.4375 3.5s-4.7708 1.125-7.1875 1.125c-3.0833 0-5.9792-0.5833-8.6875-1.75s-5.0833-2.7708-7.125-4.8125-3.6458-4.4167-4.8125-7.125-1.75-5.6042-1.75-8.6875c0-1.8333 0.1667-3.4583 0.5-4.875-2.6667-0.5-5.125-1.4167-7.375-2.75s-4.2083-2.9792-5.875-4.9375-2.9583-4.1667-3.875-6.625-1.375-5.0625-1.375-7.8125 0.4583-5.3542 1.375-7.8125 2.2083-4.6667 3.875-6.625 3.625-3.6042 5.875-4.9375 4.7083-2.25 7.375-2.75c-0.3333-1.4167-0.5-3.0417-0.5-4.875 0-2.9167 0.5208-5.688 1.5625-8.313s2.4792-4.937 4.3125-6.937 4.0208-3.625 6.5625-4.875 5.2708-2 8.1875-2.25c-1.25-4.25-2.0417-8.5-2.375-12.75s-0.5-8.542-0.5-12.875c0-2.083 0.0208-4.146 0.0625-6.188 0.0417-2.041 0.0625-4.104 0.0625-6.187l-35.875-12v-22c0-4.917 0.9375-9.562 2.8125-13.938 1.875-4.374 4.4375-8.187 7.6875-11.437s7.0625-5.812 11.438-7.688c4.375-1.874 9.0208-2.812 13.938-2.812h36c7.417 0 14.396 1.417 20.938 4.25 6.541 2.833 12.25 6.687 17.125 11.562s8.729 10.584 11.562 17.125c2.833 6.542 4.25 13.521 4.25 20.938h53.875c9.917 0 19.458 1.292 28.625 3.875s17.75 6.208 25.75 10.875 15.292 10.292 21.875 16.875 12.208 13.875 16.875 21.875 8.292 16.583 10.875 25.75c2.583 9.1667 3.875 18.708 3.875 28.625s-1.292 19.458-3.875 28.625-6.208 17.729-10.875 25.688c-4.667 7.9583-10.292 15.229-16.875 21.812-6.583 6.5833-13.875 12.208-21.875 16.875s-16.583 8.2917-25.75 10.875-18.708 3.875-28.625 3.875z"/>
      <path d="m85.875-134.75v-54c4.9167-0.417 9.7917-0.854 14.625-1.313 4.833-0.458 9.75-0.687 14.75-0.687h12.875l2.75 2c0.083 0.167 0.208 0.521 0.375 1.062 0.167 0.542 0.333 1.105 0.5 1.688s0.333 1.104 0.5 1.562c0.167 0.459 0.25 0.73 0.25 0.813 0 12.667-0.187 25.292-0.562 37.875s-0.73 25.208-1.063 37.875h71.875v18h-71.875c-6.167 0-11.979-1.1875-17.437-3.5625-5.459-2.375-10.23-5.5833-14.313-9.6255-4.0833-4.041-7.3125-8.791-9.6875-14.25-2.375-5.458-3.5625-11.27-3.5625-17.437z" fill="#e4f577"/>
      <path d="m211.62-152.75c1.667 1.083 3.312 2.271 4.938 3.562 1.624 1.292 3.104 2.688 4.437 4.188 1.583-0.75 3.083-1.646 4.5-2.688 1.417-1.041 2.792-2.145 4.125-3.312 10.5 2.167 20.146 5.958 28.938 11.375 8.791 5.417 16.375 12.042 22.75 19.875s11.333 16.604 14.875 26.312c3.541 9.7083 5.312 19.896 5.312 30.562 0 8.25-1.062 16.208-3.187 23.875s-5.146 14.812-9.063 21.438-8.604 12.667-14.062 18.125c-5.459 5.4583-11.521 10.146-18.188 14.062s-13.833 6.9375-21.5 9.0625-15.625 3.1875-23.875 3.1875h-53.875c-7.417 0-14.396-1.4167-20.937-4.25-6.542-2.8333-12.25-6.6875-17.125-11.562s-8.73-10.583-11.563-17.125c-2.833-6.5417-4.25-13.521-4.25-20.938v-2.875c0-1.5833 0.271-3 0.813-4.25 0.541-1.25 1.77-1.875 3.687-1.875 1.25 0 2.312 0.4375 3.188 1.3125 0.874 0.875 1.312 1.9375 1.312 3.1875v4.5c0 4.9167 0.958 9.5417 2.875 13.875 1.917 4.3333 4.5 8.1458 7.75 11.438s7.042 5.8958 11.375 7.8125 8.958 2.875 13.875 2.875h57.875c8 0 15.583-1.5208 22.75-4.5625s13.438-7.2083 18.813-12.5c5.375-5.2917 9.625-11.479 12.75-18.562s4.687-14.667 4.687-22.75c0-5.5833-0.771-11-2.312-16.25-1.542-5.25-3.75-10.146-6.625-14.688-2.876-4.5417-6.334-8.6458-10.375-12.312-4.042-3.6667-8.563-6.75-13.563-9.25l-21.125 21h18c2.5 0 4.833 0.4792 7 1.4375s4.063 2.25 5.688 3.875 2.916 3.5208 3.875 5.6875c0.958 2.1667 1.437 4.5 1.437 7s-0.479 4.8333-1.437 7c-0.959 2.1667-2.25 4.0625-3.875 5.6875s-3.521 2.8958-5.688 3.8125-4.5 1.375-7 1.375h-18v31.5c0 1.1667-0.437 2.2083-1.312 3.125-0.875 0.91667-1.896 1.375-3.063 1.375-1.25 0-2.312-0.4375-3.187-1.3125s-1.313-1.9375-1.313-3.1875v-25.125l-28.375 28.25c-0.917 0.91667-1.958 1.375-3.125 1.375s-2.208-0.45833-3.125-1.375c-0.917-0.9167-1.375-1.9583-1.375-3.125s0.458-2.2083 1.375-3.125l28.25-28.375h-34.125c-1.25 0-2.312-0.4375-3.187-1.3125s-1.313-1.9375-1.313-3.1875c0-1.1667 0.458-2.1875 1.375-3.0625s1.958-1.3125 3.125-1.3125h62.875c1.167 0 2.208-0.4583 3.125-1.375s1.375-1.9583 1.375-3.125c0-1.25-0.437-2.3125-1.312-3.1875s-1.938-1.3125-3.188-1.3125h-31.375c-2.417 0-4.729-0.4583-6.937-1.375-2.209-0.9167-4.146-2.2083-5.813-3.875s-2.958-3.6042-3.875-5.8125-1.375-4.5208-1.375-6.9375 0.458-4.7292 1.375-6.9375 2.208-4.1458 3.875-5.8125l14.25-14.25h-46.5v14l-29.5 28.25c-1.333 1.25-2.896 2.0625-4.687 2.4375-1.792 0.375-3.646 0.5625-5.563 0.5625-1.417 0-2.771-0.0417-4.062-0.125-1.292-0.0833-2.521-0.125-3.688-0.125l-25.625 25.625c-0.8333 0.8333-1.9167 1.25-3.25 1.25-1.1667 0-2.2083-0.4375-3.125-1.3125s-1.375-1.8958-1.375-3.0625c0-1.25 0.4583-2.3333 1.375-3.25l19.25-19.25h-34c-1.25 0-2.3125-0.4375-3.1875-1.3125s-1.3125-1.9375-1.3125-3.1875 0.4583-2.3125 1.375-3.1875 2-1.3125 3.25-1.3125h33.875l-19.25-19.25c-0.9167-0.9167-1.375-2-1.375-3.25 0-1.1667 0.4583-2.1875 1.375-3.0625s1.9583-1.3125 3.125-1.3125c1.3333 0 2.4167 0.4167 3.25 1.25l22.375 22.375 23.875-23.75v-36.125c0-5.333-1.333-9.979-4-13.938-2.667-3.958-6.125-7.395-10.375-10.312-0.917-0.667-1.875-1.271-2.875-1.813-1-0.541-2.042-1.02-3.125-1.437l-51.5-17.25v-9c0-2.5 0.4583-4.833 1.375-7s2.1875-4.063 3.8125-5.688 3.5208-2.895 5.6875-3.812 4.5-1.375 7-1.375h36c3.917 0 7.667 0.604 11.25 1.812 3.583 1.209 6.875 2.896 9.875 5.063s5.604 4.771 7.813 7.812c2.208 3.042 3.937 6.438 5.187 10.188 1.5 4.583 2.375 9.375 2.625 14.375s0.583 9.875 1 14.625h34.125l9.75 7.625 8.25-7.625zm-89.75-18c2.417 0 4.521-0.896 6.313-2.688 1.791-1.791 2.687-3.895 2.687-6.312s-0.896-4.521-2.687-6.313c-1.792-1.791-3.896-2.687-6.313-2.687s-4.521 0.896-6.312 2.687c-1.792 1.792-2.688 3.896-2.688 6.313 0 2.5 0.875 4.625 2.625 6.375s3.875 2.625 6.375 2.625z" fill="#8cbd18"/>
      <path d="m94.875-197.62c2.4167 0 4.5208 0.875 6.313 2.625 1.791 1.75 2.687 3.833 2.687 6.25v9c0 2.5-0.875 4.625-2.625 6.375s-3.875 2.625-6.375 2.625-4.625-0.875-6.375-2.625-2.625-3.875-2.625-6.375v-9c0-2.417 0.8958-4.5 2.6875-6.25s3.8958-2.625 6.3125-2.625z"/>
      <path d="m157.75-152.75v27c0 2.417-0.896 4.5-2.687 6.25-1.792 1.75-3.896 2.625-6.313 2.625s-4.521-0.875-6.312-2.625c-1.792-1.75-2.688-3.833-2.688-6.25v-44.25c0.083 2.417 0.625 4.667 1.625 6.75s2.313 3.896 3.938 5.437c1.625 1.542 3.5 2.771 5.625 3.688s4.395 1.375 6.812 1.375zm18 27v-27h18v27c0 2.417-0.896 4.5-2.687 6.25-1.792 1.75-3.896 2.625-6.313 2.625s-4.521-0.875-6.312-2.625c-1.792-1.75-2.688-3.833-2.688-6.25zm35.875-27c5.917 0 11.917 0.583 18 1.75v25.25c0 2.417-0.896 4.5-2.687 6.25-1.792 1.75-3.896 2.625-6.313 2.625s-4.521-0.875-6.312-2.625c-1.792-1.75-2.688-3.833-2.688-6.25z" fill="#107c10"/>
    </g>
    <path id="🖖-✂" class="arrow" d="m67.16 36.617-24.728 19.497" fill="none" marker-end="url(#m-🖖-✂)" stroke="#eeeeee" stroke-width="1.0583"/>
    <path id="🦎-🖖" class="arrow" d="m118.98 54.965-21.753-20.422" fill="none" marker-end="url(#m-🦎-🖖)" stroke="#eeeeee" stroke-width="1.0583"/>
    <path id="✂-📄" class="arrow" d="m27.985 87.942 14.943 22.225" fill="none" marker-end="url(#m-✂-📄)" stroke="#eeeeee" stroke-width="1.0583"/>
    <path id="🦎-📄" class="arrow" d="m120.72 77.777-46.795 33.878" fill="none" marker-end="url(#m-🦎-📄)" stroke="#eeeeee" stroke-width="1.0583"/>
    <path id="🗿-🦎" class="arrow" d="m114.27 110.26 17.423-18.935" fill="none" marker-end="url(#m-🗿-🦎)" stroke="#eeeeee" stroke-width="1.0583"/>
    <path id="✂-🦎" class="arrow" d="m43.605 67.859 73.707-0.33856" fill="none" marker-end="url(#m-✂-🦎)" stroke="#eeeeee" stroke-width="1.0583"/>
    <path id="🗿-✂" class="arrow" d="m93.938 111.25-50.267-32.572" fill="none" marker-end="url(#m-🗿-✂)" stroke="#eeeeee" stroke-width="1.0583"/>
    <path id="📄-🗿" class="arrow" d="m75.342 125.38 13.208-0.0906" fill="none" marker-end="url(#m-📄-🗿)" stroke="#eeeeee" stroke-width="1.0583"/>
    <path id="📄-🖖" class="arrow" d="m60.466 104.8 17.671-58.11" fill="none" marker-end="url(#m-📄-🖖)" stroke="#eeeeee" stroke-width="1.0583"/>
    <path id="🖖-🗿" class="arrow" d="m85.756 46.287 15.191 57.929" fill="none" marker-end="url(#m-🖖-🗿)" stroke="#eeeeee" stroke-width="1.0583"/>
  </g>
</svg>
